<svg id="Layer_2" data-name="Layer 2" xmlns="http://www.w3.org/2000/svg" viewBox="0 0 708.09 648.81"><defs><style>.cls-1{fill:#c10000;}</style></defs><title>404</title><path class="cls-1" d="M245.42,533.72c2.72-9.86,9.43-18.7,6.9-30.11-2.25-10.21,8.72-18.42,4.57-30.06-1.59-4.47,2.56-12.05,6.09-16.74,3-4-6.06-10.91,3.6-12.11,1.91-9.77,5.41-19.52,5.46-29.28,0-4.77.32-9.13,2.57-12.64,8.37-13,8-28.54,13.48-42.61,5.13-13.1,7.4-27.71,8.46-41.85,0.66-8.73,6.72-14.26,8.07-22.77,3.69-23.23,12.81-45.56,16.68-69.07,0.69-4.2,4.17-8.4,7.32-11.73,5.62-5.95,5.67-13.38,7.39-20.38,0.94-3.85-3.27-9.46,3.36-11.21,5.88-1.55,9-7.74,16-7.57,9.69,0.22,23.44,6.67,23.79,14.41a39.77,39.77,0,0,1-5.08,20.6,32.8,32.8,0,0,0-4.59,16.56c-0.21,15.27-6.11,28.83-10.79,42.69-1.2,3.54-2.11,6.45-1.74,10.34,0.31,3.26.55,8.53-.54,10.07-8.68,12.32-7.14,27.47-11.9,40.23-3.71,10-5.93,20.18-7.9,30.43l-2.87,15.3c-1,5.05-2.05,10.08-3.34,15.11s2.92,11.05-6.09,13.05c-2.55.57-1,4.87-.71,7.77,0.74,7.54-4.6,13.5-6.9,20.34-1.41,4.18-5.95,9.4-4.58,12.14,8.68,17.19-9.67,26.18-10.95,40.2-0.13,1.43-1,2.78-1.47,4.18-3.6,10.39-3.58,10.44,8.38,17.74l-11.73,5.81c7.14,8.87-4.85,16.25-1.54,24.89,0.72,1.89,1.58,5.22.7,5.94-13.27,10.86-10.84,28.25-17.52,41.79-3.8,7.59-10.58,13.81-11.12,22.93-0.35,5.52-8.62,12.54,3.08,16.26,2,0.62,1.39,2.17-.29,3.13-8.58,4.88-5.82,14.72-9.17,21.93a96.46,96.46,0,0,1-6.18,9.27c-3,4.15-6.68,9.08-10.61,13.89s-7.75,9.55-11.27,13.33a90,90,0,0,1-7.79,7.85c-4.46,3.32-5.34-1.55-5.46-3.17-0.39-5-.91-9.91-1.14-14.84a62.18,62.18,0,0,1,.7-15.09c0.64-3.31,4-5.35,6.37-7.86s3.74-5.55.22-10.85c-2.65-4,4.57-14.06,2.26-18.91-3.81-8,4.83-14.38-.17-21.62-3-4.3.85-8.7,1.95-12.89" transform="translate(-118.72 -132.49)"/><path class="cls-1" d="M559,436.5c-2.1,7.84-5.6,15.34-8.81,23s-6.18,15.42-7.74,24.47c-1.47,8.13-6.74,15.32-12.61,22.28l-2.2,2.63-2.3,2.63q-1.13,1.32-2.23,2.69t-2.28,2.72q-1.11,1.39-2.16,2.84t-2.18,2.93q-1.05,1.51-2,3.14t-2,3.29a18.29,18.29,0,0,1-1.92,2.72,27.73,27.73,0,0,1-2.85,2.74,42.93,42.93,0,0,1-3.5,2.71c-1.3.85-2.68,1.68-4.1,2.47-0.71.4-1.43,0.79-2.16,1.17s-1.51.69-2.27,1c-1.52.66-3.05,1.28-4.56,1.85s-3.07,1-4.53,1.35a40.18,40.18,0,0,1-4.2,1,15.61,15.61,0,0,0-6.16,2.79c-1.92,1.21-3.75,2.67-5.63,3.89a12.61,12.61,0,0,1-5.8,2.14,7,7,0,0,1-3-.45,9.86,9.86,0,0,1-3-2.09,96.79,96.79,0,0,1-13.88,1.66l-6.88.14c-1.14,0-2.25-.08-3.38-0.12l-5-.22a52.57,52.57,0,0,1-19.66-5.38,62.42,62.42,0,0,1-16.21-12c-1.17-1.14-2.23-2.37-3.28-3.58q-0.77-.93-1.51-1.88c-0.49-.63-1-1.25-1.47-2l-1.24-1.8-1-1.6c-0.69-1.08-1.24-2.11-1.82-3.17a37.82,37.82,0,0,1-4.14-12.07c-1-7.17-1.79-13.69-2.54-20s-1.4-12.45-1.94-18.5c-1.07-12.08-1.59-24-.13-35.52,2.78-21.68,4.42-44.21,6.31-65.84,0.59-6.68,2.64-12.38,4.85-18s4.62-11.11,6-17.57c3.89-17.67,10.14-35,17.67-51.94a516.14,516.14,0,0,1,26.19-50.49c3.53-6.06,10.36-11.43,16.32-15.18,5.33-3.36,9.7-7.45,14.11-11.73S474.86,196.9,480,193c2.79-2.11,5.13-5.42,8-7.91s6.24-4.17,10.28-2.79c3.55,1.21,8.18,1,12.5,1.55s8.24,1.69,10.1,4.77c2.59,4.23,3.23,10.35,2.76,15.8a36,36,0,0,1-.56,4,26.45,26.45,0,0,1-1,3.58,11.84,11.84,0,0,1-3.51,5.33c-2.85,2.32-6.07,4.59-9.49,6.9s-7,4.56-10.64,6.54a36.72,36.72,0,0,0-14.92,15.51C479,254.87,474,263.1,468.9,271.47S458.6,288.38,454,297.34c-2.33,4.58-4.09,8.42-4.71,13.63-0.54,4.35-1.47,11.38-2.89,13.45-5.75,8.29-8.73,17.79-10.87,27.33s-3.45,19.16-6,28.22a191.36,191.36,0,0,0-6.61,43c-0.71,14.31-.34,28.44.32,42,0.17,3.44,1.82,6.55,2.5,9.45s0.39,5.62-3.24,8.84c-1,.92-0.7,2.45.12,4.06a51.63,51.63,0,0,0,3,4.64,32.32,32.32,0,0,1,4.07,9.8c0.09,0.34.21,0.76,0.26,1a1.11,1.11,0,0,0,0,.53,6.79,6.79,0,0,0,.18,1.28,4.55,4.55,0,0,0,1.21,2.32c0.48,0.47,1,1.19,1.6,1.85a5.29,5.29,0,0,0,2.18,1.47,3,3,0,0,0,.58.15l0.3,0h0.6a3.49,3.49,0,0,0,2-.55,32.44,32.44,0,0,1,3.14-2.1q0.76-.44,1.51-0.81c0.49-.27,1-0.55,1.44-0.78a19.24,19.24,0,0,1,2.81-1.16,26.51,26.51,0,0,1,2.7-.88,38.64,38.64,0,0,1,5.35-.91,13.28,13.28,0,0,0,1.34-.14q0.67-.08,1.35-0.13l1.38-.07,0.7,0,0.68-.07c0.91-.09,1.85-0.16,2.8-0.22l0.72,0,0.7-.1,1.41-.2L468,502l0.73-.1,0.7-.17c0.94-.23,1.88-0.46,2.83-0.72a20.93,20.93,0,0,0,10-6.23,13,13,0,0,1,1.94-1.67c0.7-.54,1.43-1.07,2.1-1.64a42,42,0,0,0,3.17-3l1.25-1.3c0.36-.44.68-0.86,1-1.26a7.67,7.67,0,0,0,1.84-4.35c0.08-2.83-1.86-5.79-6.25-11.43q1.76-.34,3.51-0.72t3.42-.92q1.71-.48,3.43-1l3.37-1.18c-2-5.9.3-10.52,3-15.44s5.62-10.09,4.6-15.61c-0.49-2.44-1-6.65,0-7.64,7.35-7.42,10.47-17.39,12.25-27.71s2.31-21.1,4.85-31.19c2.84-11.29,8.6-22,7.27-34.77a27.61,27.61,0,0,1,.34-6.41,52.45,52.45,0,0,0,.6-6.71c-0.06-4.23-1.56-7.59-7.68-8-2-.12-1.9-2.41-0.52-4.34,3.51-4.9,3.86-10.47,3.46-16.14s-1.59-11.47-1.17-17,4-22,7.11-38.69,6.07-33.49,7.47-38.55c2.19-7.18,5.43-1.34,6.36.81,5.65,13,11.45,25.71,13.92,41.16,0.79,5-1.59,9.6-2.87,14.31s-1.47,9.57,3.67,15.46c2,2.26,2,7.8,2,13.51s-0.1,11.58,1.71,14.59c3,5,2.78,10.73,2.62,16.25s-0.29,10.84,3,15.24c3.83,5.26,1,13.23.57,19.81" transform="translate(-118.72 -132.49)"/><path class="cls-1" d="M563.61,622c-3.41,0-6.85-.95-10.29-1.2s-6.89,0-10.25,2.63c-3,2.3-6.36,1.58-9.8,1.11s-7-.58-10.14,2.76c-2.44,2.53-8.11,1.06-11.88-.73-3.25-1.54-5.31,8.27-8.41.27-6.54,1.07-13.47.93-19.47,3.73-2.93,1.41-5.65,2.46-8.41,1.59-5.11-1.63-10-1.07-14.85-.21s-9.63,2.21-14.6,2.26a51.47,51.47,0,0,0-14,2.17c-2.3.67-4.57,1.44-6.81,2.32s-4.41,1.88-6.55,2.91a10.88,10.88,0,0,1-4,1,25.52,25.52,0,0,1-4,0c-2.65-.16-5.33-0.42-8,0.59a105.34,105.34,0,0,1-11.11,3.51c-3.73,1-7.55,1.86-11.3,2.82s-7.56,1.85-11.24,3c-1.85.58-3.69,1.19-5.51,1.86s-3.58,1.46-5.33,2.29a7.93,7.93,0,0,1-4.45.4,27.21,27.21,0,0,1-4.89-1.24c-5.65-1.91-9.55,1.3-14,3-2.41,1-3.24,6.56-7.3,2.28-3.57-3.75-8.27-3.39-11.73-8.74a41.92,41.92,0,0,1-5.43-13.48c-1-4.68-.75-9,1.33-10.89a20.11,20.11,0,0,1,6.55-4,24,24,0,0,1,3.74-1.12,21.84,21.84,0,0,1,3.78-.36,19.39,19.39,0,0,0,6.25-1,18.24,18.24,0,0,0,5.32-2.77,36.79,36.79,0,0,1,3.4-2.23c1.16-.64,2.35-1.22,3.55-1.74a50.55,50.55,0,0,1,7.4-2.53c5-1.28,10.21-2.07,15.3-3,2.6-.47,4.7-0.94,6.89-2.75,1.83-1.53,4.93-3.8,6.29-3.53,5.41,1.11,10.24,0,14.94-1.61s9.29-3.5,14.07-3.81c14.88-1.11,28.46-7.19,42.92-9.27,3.64-.55,6.28-6,10.19,1,1.11,2,3.41-.69,5.2-1.82,4.67-2.91,10-.23,15.06-0.25,3.1,0,7.67,2.34,9.08.36,4.46-6.2,9.4-6,14.33-4.56s9.87,4.1,14.62,2.79a10.19,10.19,0,0,1,3.09.16c7.66,0.34,7.65.31,9.86-12l6.44,8.72a6.75,6.75,0,0,1,3.77-3.68,9.53,9.53,0,0,1,4.43-.1c3.05,0.47,6.16,1.36,8.73-1.17,1.12-1.09,3.2-2.65,3.86-2.05A18.32,18.32,0,0,0,568,580a27.86,27.86,0,0,0,7.9.86c5.32-.12,10.76-0.89,15.91.53,2.88,0.77,5.66,2.4,8.48,3.57a14.2,14.2,0,0,0,8.84,1.24c3.82-.85,9.73,5,10.69-6.14,0.16-1.86,1.31-1.66,2.2-.36,2.27,3.31,5,3.84,7.81,3.73s5.82-.75,8.51,0,10.4,5.38,17.78,10.4c1.85,1.27,3.67,2.56,5.39,3.81l2.5,1.84,2.29,1.81a55.56,55.56,0,0,1,6,5.37c2.63,3.3-.64,5-1.74,5.43-3.4,1.31-6.7,2.69-10,3.86a34.26,34.26,0,0,1-10.22,2.24c-2.3.14-4-2.48-5.88-4.11s-4.1-2.29-7.27,1.93c-2.4,3.2-9.83-1.34-12.78,1.78-2.42,2.53-4.91,2.19-7.33,1.94s-4.8-.29-6.82,2.7c-2.4,3.54-5.77,1.1-8.65,1.05" transform="translate(-118.72 -132.49)"/><path class="cls-1" d="M700.35,366.91c-8.44,1-17.29-2.22-25.49,4-3.7,2.75-8.09,2.19-12.59,1.81-1.12-.09-2.27-0.18-3.41-0.19h-0.93l-1.25.06c-0.84,0-1.67.12-2.51,0.21a44.69,44.69,0,0,0-5.86,1,50.08,50.08,0,0,0-6.25,1.93c-3.35,1.31-8.37,1.16-13.08,0a30.46,30.46,0,0,1-11.63-5.48,7.76,7.76,0,0,0-4.45-1.3c-1.7-.13-3.58-0.07-5.22-0.28-3.29-.37-5.76-1.84-4-6.32A31.88,31.88,0,0,1,597,355.7a36.08,36.08,0,0,1-4.62-8.51c-2.26-5.93-3.08-11.76-3.79-17.75a29.76,29.76,0,0,1,.26-8.94q0.23-1.12.52-2.22c0.2-.74.48-1.47,0.76-2.2a22.52,22.52,0,0,1,2.16-4.21c3.26-5,6.35-9.78,9.31-14.53l2.19-3.57,2-3.36,1.51-2.52,1.2-2.09c3.14-5.57,6-11.15,10.07-15.81,7.65-8.75,13.06-19.54,17.2-30.32,2.56-6.65,9.35-8.77,12.46-15,8.51-16.91,21.61-31.07,30-48.27,1.5-3.08,5.6-5.18,9.2-6.72,6.44-2.75,8.08-8.64,11.2-13.6,1.71-2.72-.91-8.69,5.63-7.72,5.78,0.86,10.12-2.9,16.58-.2,8.9,3.72,20.05,13.78,18.69,19.9a26.27,26.27,0,0,1-9.12,14.3,21.24,21.24,0,0,0-7.71,11.47c-3.37,12-11.71,20.85-19.06,30.21-1.88,2.4-3.36,4.38-3.87,7.61-0.43,2.7-1.39,7-2.73,7.81-10.72,6.63-12.72,19.18-19.94,27.5-11.22,13-17.31,28.93-25.72,42.39a7.55,7.55,0,0,0-.9,2.87l-0.21,1.49c0,0.24-.08.48-0.14,0.71a2.1,2.1,0,0,0-.11.53,0.39,0.39,0,0,1-.18.38,0.84,0.84,0,0,1-.69,0c-0.66-.14-1.84-0.48-3.92-1-1.18-.29-1.32.06-1,0.53a7.34,7.34,0,0,0,1.38,1.35c1,0.88.47,1.28-.63,2a10.91,10.91,0,0,0-3.28,2.87c-0.35.62-1.56,1.73-2.26,2.81s-0.82,2,.57,1.59c4.41-1.28,6.5-2.25,7.37-2.29s0.7,0.72.64,1.85a6.58,6.58,0,0,0,.52,3.58,2.15,2.15,0,0,0,2.91,1c0.5-.23.92,0.25,1.42,0.36l0.65,0.13,0.3,0.05,0.38,0a7.13,7.13,0,0,0,1.39,0,3.83,3.83,0,0,0,2.73-1.39c1.32-1.67,1.85-5.07,2.81-11.87,2.46,3.27,4.88,6.3,7.37,9.3,2.15-4.8,5.39-5,8.81-4.75s7,0.9,9.59-2.14c1.13-1.33,3.24-3.3,4.05-2.73,12.19,8.59,24,0,36.12,1.09,6.79,0.63,13.74,4.56,20.51,1.54,4.08-1.82,12.17,3,10.53-9.12-0.27-2,1-2.11,2.34-.94,6.64,5.93,12.63-.54,19-0.34,6.26,0.41,39.31,10.07,45.24,13.26,4.22,2.45,1.22,5.42.12,6.27-6.7,5.2-13.06,10.88-21.2,13.61-5.31,1.77-11.14-8.94-16.11,1.83-1.9,4.1-11.95,1.49-14.6,5.56-4.41,6.73-12.3,1.23-15.76,8.66-2.07,4.41-6.72,2.63-10.2,3.2" transform="translate(-118.72 -132.49)"/><path class="cls-1" d="M676.67,419.61c2.61-7.93,9.24-14.57,6.7-24.22-2.23-8.62,8.54-14.3,4.41-24.23-1.6-3.8,2.43-9.59,5.87-13.1,2.94-3-6.12-9.4,3.39-9.53,0.89-3.89,2.13-7.74,3.12-11.6a41.22,41.22,0,0,0,1.65-11.67c-0.12-3.85,0-7.32,2.13-10,7.83-10.1,6.9-22.91,11.64-34,4.46-10.48,6-22.45,6.4-34,0.24-7.15,6-11.43,6.9-18.37,2.54-18.94,10.57-37,13.17-56,0.46-3.41,3.7-6.7,6.63-9.3,5.25-4.64,4.94-10.74,6.31-16.41,0.75-3.12-3.67-7.88,2.83-9.06,5.74-1,8.6-6,15.59-5.58,9.63,0.55,23.49,6.37,24.17,12.73a26.73,26.73,0,0,1-4.1,16.73,21.81,21.81,0,0,0-3.73,13.46c0.55,12.58-4.63,23.59-8.62,34.77-1,2.86-1.78,5.21-1.23,8.44,0.46,2.69.94,7-.06,8.26-8,9.74-5.77,22.28-9.87,32.56-6.4,16.05-6.86,33.26-11.26,49.56-1.12,4.13,3.28,9.31-5.56,10.46-2.5.33-.83,4-0.45,6.37,0.92,6.34-4.2,11-6.35,16.57-1.33,3.39-5.73,7.39-4.34,9.77,4.41,7.49,2,12.75-1.51,17.55s-8.4,9.1-9,14.84c-0.12,1.17-1,2.21-1.44,3.32-3.53,8.24-3.49,8.28,8.29,15.45L726.79,407c7.06,8-4.74,12.91-1.44,20.32,0.72,1.62,1.59,4.44.73,4.94-13,7.65-10.41,22.12-16.67,32.58-3.54,5.87-10.06,10.45-10.25,17.86-0.13,4.46-7.92,9.71,3.78,13.38,2,0.61,1.47,1.83-.14,2.51-8.2,3.48-4.76,11.59-7.58,17.24a65.74,65.74,0,0,1-5.21,7.28c-1.28,1.64-2.73,3.43-4.26,5.31s-3.1,3.84-4.71,5.79c-6.52,7.8-13.06,15.66-15.69,17.83-3.87,3-5.49-.87-5.86-2.22-1.14-4.12-2.42-8.23-3.33-12.41a43.75,43.75,0,0,1-1-12.78c0.46-5.75,12.71-6.76,4.88-15.8-3-3.49,3.66-11.68,1.07-15.86-4.24-6.94,4.16-11.84-1.09-18.23-3.09-3.8.55-7.29,1.55-10.72" transform="translate(-118.72 -132.49)"/><path class="cls-1" d="M205.86,483.84a125.31,125.31,0,0,1-13.64.85c-2.2,0-4.4.05-6.53,0l-6.36-.07q-1.58,0-3.17,0t-3.14,0c-2.14.06-4.22,0.08-6.42,0.22l-3.3.21c-1.11.08-2.26,0.19-3.42,0.32s-2.29.21-3.5,0.36l-3.66.47c-1.11.14-2.18,0.23-3.22,0.27a26.7,26.7,0,0,1-2.86-.13q-0.69-.07-1.36-0.16c-0.44-.07-0.83-0.17-1.23-0.27-0.8-.2-1.58-0.42-2.33-0.68a24.32,24.32,0,0,1-7-4.37c-2-1.67-3.73-3.37-5.83-5-1.05-.8-2.16-1.63-3.41-2.49s-2.64-1.8-4.2-3.06a9.59,9.59,0,0,1-1.6-1.72c-0.24-.32-0.39-0.53-0.57-0.81l-0.21-.33a0.67,0.67,0,0,1-.14-0.39,17.15,17.15,0,0,1,.29-4.44,31.05,31.05,0,0,1,3.69-9.73c1.47-2.44-1.14-3.85-2.9-5.49a6.23,6.23,0,0,1-.58-0.62,3.54,3.54,0,0,1-.23-0.32l-0.1-.16a0.45,0.45,0,0,1,0-.24,6.29,6.29,0,0,1,1.27-2.16c1.29-1.48,3.57-3.06,7.52-4.65l2.1-3.74c5.3-6.46,11-13,16.28-19.47a185.53,185.53,0,0,0,13.61-18.37c1.09-1.72,2.19-3.42,3.32-5.07q0.85-1.24,1.72-2.45l1.41-1.93a15.29,15.29,0,0,1,4.5-4.27c13.25-7.89,19.84-21.9,30.85-32,10.36-9.44,18.9-21.6,26.17-33.76,4.49-7.53,12.41-9.75,17.43-16.74,13.77-19.1,32-34.78,46.13-54,2.54-3.44,7.6-5.61,11.94-7.14,7.77-2.73,11.33-9.33,16.25-14.77,2.69-3,1.77-10,8.47-8.38,5.92,1.45,11.76-2.47,17.79,1.18,8.3,5,17,17.43,13.68,24.18a39.46,39.46,0,0,1-14,15.31,31.21,31.21,0,0,0-11.58,12.33c-7.06,13.3-18.42,22.69-28.85,32.87-2.66,2.6-4.78,4.77-6.2,8.4-1.19,3-3.35,7.82-5,8.7-13.25,7-18.66,21.17-28.55,30.39C249.78,365,239.29,383,225.74,398.63c-3.43,4-2.3,11.19-11.25,8.95-2.53-.63-3.05,3.9-4.08,6.62a15.55,15.55,0,0,1-2.79,4.62,22.73,22.73,0,0,1-1.85,1.91q-0.49.45-1,.89c-0.08.06-.19,0.17-0.24,0.2l-0.12.06-0.26.11a17.13,17.13,0,0,0-4.59,2.21,32.1,32.1,0,0,1-3.83,2c-1.28.6-2.2,1.24-1.26,1.68,2.3,1,3.75,1.44,4.28,1.83s0.13,0.77-1.09,1.42-3.19,1.55-5.43,2.72a71.27,71.27,0,0,0-6.66,3.88,21.32,21.32,0,0,0-2.37,1.8,1.55,1.55,0,0,0-.55.76,0.6,0.6,0,0,0,.56.62c0.81,0.23.41,1,.74,1.3a2.82,2.82,0,0,0,2,.88,8.21,8.21,0,0,0,3.51-1.19,72.16,72.16,0,0,0,6.88-4.31c3-2.09,7-4.91,11.8-8.67A65.76,65.76,0,0,0,196.67,440c3.2-2.58,4.72-3.82,5.57-4.34s1-.32,1.24,0a1.11,1.11,0,0,0,.93.72c0.48,0,1.2-.5,2-2,0.35-.64.72-1.4,1-1.92s0.36-.78.35-0.44a6.3,6.3,0,0,0,.64,3,4.1,4.1,0,0,0,.68.95,1.3,1.3,0,0,0,.21.18,0.57,0.57,0,0,0,.39.14q0.67,0.08,1.34.14a40.3,40.3,0,0,0,10.74-.82c7.14-1.37,14.17-3.79,21.38-3.92,8.07-.14,16.63,2.85,24.47-1.29,4.68-2.46,14.79.89,11.6-11-0.53-2,1-2.31,2.64-1.39,4.21,2.32,7.92,1.53,11.46,0s6.93-3.79,10.64-4.46c3.67-.52,15.46-0.47,27.44-0.61s24.11-.42,28,0c5.55,0.84,2.74,4.84,1.62,6.09-6.73,7.59-13.29,15.44-22.8,20.73-3.1,1.73-6.91.35-10.43,0s-6.79.46-9.09,6.51c-0.88,2.3-4.53,3.48-8.31,4.63s-7.67,2.27-9.11,4.61c-2.38,3.89-6.22,4.89-9.89,5.91s-7.18,2.07-9.1,6.13c-2.3,4.84-8.34,3.9-12.71,5" transform="translate(-118.72 -132.49)"/><path class="cls-1" d="M574.05,710.89c-5,.13-10.12-0.73-15.21-0.92s-10.18.37-15.17,3c-4.46,2.38-9.42,1.9-14.49,1.6s-10.26-.25-15,3.32c-1.83,1.36-4.82,1.73-8.06,1.56a44.87,44.87,0,0,1-9.46-1.53c-4.74-1.27-8,8.6-12.4.85-4.83.83-9.79,1.32-14.66,2a70.07,70.07,0,0,0-14.1,3.39c-4.37,1.61-8.4,3-12.41,2.39a48.06,48.06,0,0,0-11-.33,100.07,100.07,0,0,0-10.78,1.64l-5.35,1.1-5.34,1.17a87.15,87.15,0,0,1-10.81,1.64,112.7,112.7,0,0,0-20.56,3.94,167.49,167.49,0,0,0-19.81,7.15c-3.92,1.7-7.77,1.92-11.62,2.14s-7.72.4-11.68,1.83c-5.42,1.95-10.87,3.78-16.41,5.36s-11.06,3.25-16.63,4.81c-11.05,3.3-22.16,6.7-32.56,11.66a16.46,16.46,0,0,1-6.44,1.32,51.61,51.61,0,0,1-6.89-.28,20,20,0,0,0-5.57.23,25.15,25.15,0,0,0-2.6.61c-0.84.26-1.66,0.57-2.48,0.91-3.25,1.34-6.36,3.06-9.6,4.47-3.52,1.62-5.4,7.87-10.62,4.21-4.56-3.16-11.17-1.59-15.27-6.57a29,29,0,0,1-5.8-13.34c-0.75-4.85,0-9.53,3.07-12.1,0.67-.57,1.38-1.13,2.12-1.66s1.51-1,2.31-1.48a48.71,48.71,0,0,1,5-2.6,40.47,40.47,0,0,1,5.26-2,43.41,43.41,0,0,1,5.28-1.19,43.75,43.75,0,0,0,8.78-2.35,37.79,37.79,0,0,0,7.69-4,65.48,65.48,0,0,1,10.11-5.49,89.24,89.24,0,0,1,10.64-4c3.61-1.12,7.25-2.14,10.91-3.09l11-2.68c3.72-1,6.75-1.71,10-4,2.73-1.87,7.3-4.75,9.21-4.67a43.73,43.73,0,0,0,11-1c1.78-.37,3.53-0.84,5.27-1.33s3.46-1,5.17-1.58c3.42-1.13,6.8-2.36,10.19-3.45a70.67,70.67,0,0,1,10.24-2.44c21.47-3.16,41.4-10.93,62.42-14.61,5.31-.9,9.32-6.73,14.73,0,1.53,1.89,5-1,7.62-2.3,3.43-1.71,7.08-2,10.77-1.95s7.45,0.58,11.12.33a58.1,58.1,0,0,1,7.5.46c2.47,0.2,4.65.21,5.72-.83,6.67-6.57,13.83-6.8,21-5.63,3.58,0.56,7.16,1.42,10.71,1.93a27.91,27.91,0,0,0,10.55-.06,21.46,21.46,0,0,1,4.51,0c5.58-.09,8.39,0,10.21-1.6s2.65-4.67,4.34-10.89l9.29,8.41c3.22-4.32,7.57-4.4,12-4.06a55.77,55.77,0,0,0,6.63.35,11,11,0,0,0,6.12-1.78c1.64-1.13,4.67-2.76,5.63-2.18,7.23,4.29,14.89,5,22.68,4.8,3.89-.13,7.82-0.29,11.71-0.35a57.94,57.94,0,0,1,11.52.79c4.22,0.85,8.29,2.45,12.43,3.65s8.36,2.05,12.93,1.39c2.77-.4,6.37.88,9.39,0.87s5.49-1.19,6-6.75c0.18-1.86,1.86-1.62,3.19-.29,3.38,3.4,7.34,4,11.46,4s8.42-.5,12.36.42c1,0.25,2.39.74,4.18,1.4s3.92,1.62,6.28,2.65c4.71,2.1,10.33,4.59,15.81,7.5,11,5.52,21.44,11.94,24.36,14.32,4.09,3.59-.54,5-2.13,5.35-4.86,1-9.61,2.14-14.43,3a67.08,67.08,0,0,1-14.92,1.49c-3.37-.08-6-2.75-8.87-4.53s-6.14-2.55-10.63,1.48c-1.72,1.55-5.35,1.11-9.09.65s-7.61-1-9.72.55c-3.49,2.47-7.2,2-10.8,1.73s-7.1-.46-10,2.5c-3.48,3.52-8.54,1-12.79.87" transform="translate(-118.72 -132.49)"/></svg>