<svg width="80" height="80" viewBox="0 0 80 80" version="1.1" xmlns="http://www.w3.org/2000/svg" xmlns:xlink="http://www.w3.org/1999/xlink" xmlns:figma="http://www.figma.com/figma/ns">
<title>icon</title>
<desc>Created using Figma</desc>
<g id="Canvas" figma:type="canvas">
<mask id="mask0_alpha" mask-type="alpha">
<path d="M 0 0L 80 0L 80 80L 0 80L 0 0Z" fill="#FFFFFF"/>
</mask>
<g id="icon" mask="url(#mask0_alpha)" figma:type="frame">
<g id="Union" figma:type="vector">
<mask id="mask1_outline_ins">
<use xlink:href="#path0_fill" fill="white" transform="translate(38 37)"/>
</mask>
<g mask="url(#mask1_outline_ins)">
<use xlink:href="#path1_stroke_2x" transform="translate(38 37)"/>
</g>
</g>
<g id="Union" figma:type="vector">
<mask id="mask2_outline_ins">
<use xlink:href="#path2_fill" fill="white" transform="matrix(-1 0 0 1 51 16)"/>
</mask>
<g mask="url(#mask2_outline_ins)">
<use xlink:href="#path3_stroke_2x" transform="matrix(-1 0 0 1 51 16)"/>
</g>
</g>
</g>
</g>
<defs>
<path id="path0_fill" d="M 4.17712 0L 0 4.17712L 0 19.8229L 4.17712 24L 17 24L 22 28.5L 22 24L 24.8229 24L 29 19.8229L 29 4.17712L 24.8229 0L 4.17712 0Z"/>
<path id="path1_stroke_2x" d="M 0 4.17712L -2.82843 1.34869L -4 2.52027L -4 4.17712L 0 4.17712ZM 4.17712 0L 4.17712 -4L 2.52027 -4L 1.34869 -2.82843L 4.17712 0ZM 4.17712 24L 1.34869 26.8284L 2.52027 28L 4.17712 28L 4.17712 24ZM 0 19.8229L -4 19.8229L -4 21.4797L -2.82843 22.6513L 0 19.8229ZM 29 19.8229L 31.8284 22.6513L 33 21.4797L 33 19.8229L 29 19.8229ZM 24.8229 24L 24.8229 28L 26.4797 28L 27.6513 26.8284L 24.8229 24ZM 24.8229 0L 27.6513 -2.82843L 26.4797 -4L 24.8229 -4L 24.8229 0ZM 29 4.17712L 33 4.17712L 33 2.52027L 31.8284 1.34869L 29 4.17712ZM 17 24L 19.6759 21.0268L 18.5349 20L 17 20L 17 24ZM 22 28.5L 19.3241 31.4732L 26 37.4814L 26 28.5L 22 28.5ZM 22 24L 22 20L 18 20L 18 24L 22 24ZM 2.82843 7.00555L 7.00555 2.82843L 1.34869 -2.82843L -2.82843 1.34869L 2.82843 7.00555ZM 7.00555 21.1716L 2.82843 16.9945L -2.82843 22.6513L 1.34869 26.8284L 7.00555 21.1716ZM 26.1716 16.9945L 21.9945 21.1716L 27.6513 26.8284L 31.8284 22.6513L 26.1716 16.9945ZM 21.9945 2.82843L 26.1716 7.00555L 31.8284 1.34869L 27.6513 -2.82843L 21.9945 2.82843ZM 4.17712 4L 24.8229 4L 24.8229 -4L 4.17712 -4L 4.17712 4ZM 33 19.8229L 33 4.17712L 25 4.17712L 25 19.8229L 33 19.8229ZM -4 4.17712L -4 19.8229L 4 19.8229L 4 4.17712L -4 4.17712ZM 4.17712 28L 17 28L 17 20L 4.17712 20L 4.17712 28ZM 14.3241 26.9732L 19.3241 31.4732L 24.6759 25.5268L 19.6759 21.0268L 14.3241 26.9732ZM 26 28.5L 26 24L 18 24L 18 28.5L 26 28.5ZM 22 28L 24.8229 28L 24.8229 20L 22 20L 22 28Z"/>
<path id="path2_fill" d="M 4.17712 0L 0 4.17712L 0 29.8229L 4.17712 34L 24 34L 32 42.5L 32 34L 34.8229 34L 39 29.8229L 39 4.17712L 34.8229 0L 4.17712 0Z"/>
<path id="path3_stroke_2x" d="M 0 4.17712L -2.82843 1.34869L -4 2.52027L -4 4.17712L 0 4.17712ZM 4.17712 0L 4.17712 -4L 2.52027 -4L 1.34869 -2.82843L 4.17712 0ZM 4.17712 34L 1.34869 36.8284L 2.52027 38L 4.17712 38L 4.17712 34ZM 0 29.8229L -4 29.8229L -4 31.4797L -2.82843 32.6513L 0 29.8229ZM 39 29.8229L 41.8284 32.6513L 43 31.4797L 43 29.8229L 39 29.8229ZM 34.8229 34L 34.8229 38L 36.4797 38L 37.6513 36.8284L 34.8229 34ZM 34.8229 0L 37.6513 -2.82843L 36.4797 -4L 34.8229 -4L 34.8229 0ZM 39 4.17712L 43 4.17712L 43 2.52027L 41.8284 1.34869L 39 4.17712ZM 24 34L 26.9128 31.2585L 25.7283 30L 24 30L 24 34ZM 32 42.5L 29.0872 45.2415L 36 52.5863L 36 42.5L 32 42.5ZM 32 34L 32 30L 28 30L 28 34L 32 34ZM 2.82843 7.00555L 7.00555 2.82843L 1.34869 -2.82843L -2.82843 1.34869L 2.82843 7.00555ZM 7.00555 31.1716L 2.82843 26.9945L -2.82843 32.6513L 1.34869 36.8284L 7.00555 31.1716ZM 36.1716 26.9945L 31.9945 31.1716L 37.6513 36.8284L 41.8284 32.6513L 36.1716 26.9945ZM 31.9945 2.82843L 36.1716 7.00555L 41.8284 1.34869L 37.6513 -2.82843L 31.9945 2.82843ZM 4.17712 4L 34.8229 4L 34.8229 -4L 4.17712 -4L 4.17712 4ZM 43 29.8229L 43 4.17712L 35 4.17712L 35 29.8229L 43 29.8229ZM -4 4.17712L -4 29.8229L 4 29.8229L 4 4.17712L -4 4.17712ZM 4.17712 38L 24 38L 24 30L 4.17712 30L 4.17712 38ZM 21.0872 36.7415L 29.0872 45.2415L 34.9128 39.7585L 26.9128 31.2585L 21.0872 36.7415ZM 36 42.5L 36 34L 28 34L 28 42.5L 36 42.5ZM 32 38L 34.8229 38L 34.8229 30L 32 30L 32 38Z"/>
</defs>
</svg>
