<svg id="Layer_1" data-name="Layer 1" xmlns="http://www.w3.org/2000/svg" viewBox="0 0 145.28 34.14"><title>mark</title><path d="M143.78,23.77l-11.42-1,1.26-.07a1.4,1.4,0,0,0,1.3-1.94q3.22.45,6.43.93c1.88.28,2.62-2.56.7-2.92l-.35-.06v0l-.7-.1-1.66-.29a1.73,1.73,0,0,0-.42-1.4l4.74-.25a1.5,1.5,0,0,0-.1-3q-14.76-.2-29.51.29l-3.4-.5,2-.18h4.22a1.3,1.3,0,0,0,1-.5c2.78-.29,5.57-.6,8.35-1a1.54,1.54,0,0,0,1.38-1.5l10.84-.14c1.93,0,1.83-3-.1-3L129,7.2h-.13L121.77,7a1.52,1.52,0,0,0-1-2.61L111,4.07c1.18-.51,1.36-2.69-.18-2.85A91.6,91.6,0,0,0,84.36,2.33a177.36,177.36,0,0,0-26.19-.89h-.89a94.53,94.53,0,0,0-39.06,1.3A1.33,1.33,0,0,0,17.2,4Q9.3,3.5,1.39,3.17c-1.93-.08-1.82,2.92.11,3q4.7.2,9.4.44a1.5,1.5,0,0,0,.76,2.19,1.35,1.35,0,0,0,1.44,1.76l5.9-.24a1.51,1.51,0,0,0,0,.5l-6.54.34c-1.93.1-2,3-.07,3h.17v0l.88,0,10.75,0a29.68,29.68,0,0,0-13,6.07c-1.06.9-.06,2.53,1.14,2.54h.81c-.36.2-.73.41-1.08.62A1.52,1.52,0,0,0,12.46,26c5.23,1.92,11,1.52,16.58.72a1.58,1.58,0,0,0,.44,0l2.72-.24a9,9,0,0,0-2.81,6.15,1.51,1.51,0,0,0,1.55,1.45l45-2.94a357.36,357.36,0,0,0,42.33.41l2.9.54a1.53,1.53,0,0,0,1.5-2.43c1.84.08,3.68.14,5.52.17a1.57,1.57,0,0,0,1.31-2.19l14.39-.94A1.5,1.5,0,0,0,143.78,23.77Zm-126.46.33h0l-.15,0-.22,0a36,36,0,0,1,3.56-1.4h6Q21.89,23.28,17.32,24.09ZM32.68,31a8.58,8.58,0,0,1,3.89-4.33,21.74,21.74,0,0,0,6.9.68,1.34,1.34,0,0,0,.87.43,1.34,1.34,0,0,0,.2,1,7.65,7.65,0,0,0,1.39,1.35Zm15.48-2.9c.26-.19.52-.39.78-.56l1.77-.1a1.51,1.51,0,0,0,1.14,1.29l1.13.14A9.23,9.23,0,0,1,48.16,28.12ZM87.24,6.9l-2.53,0a1.35,1.35,0,0,0-.38-.75H88.1l2.6.1Q89,6.62,87.24,6.9Z"/></svg>