<?xml version="1.0" encoding="utf-8"?>
<!-- Generator: Adobe Illustrator 19.2.1, SVG Export Plug-In . SVG Version: 6.00 Build 0)  -->
<svg version="1.1" baseProfile="basic" id="Layer_1"
	 xmlns="http://www.w3.org/2000/svg" xmlns:xlink="http://www.w3.org/1999/xlink" x="0px" y="0px" viewBox="0 0 32 32"
	 xml:space="preserve">
<path d="M31.5,11.9C29.2,3.3,20.4-1.7,11.9,0.5S-1.7,11.6,0.5,20.1c2.3,8.5,11.1,13.6,19.6,11.3C28.7,29.2,33.7,20.4,31.5,11.9z
	 M19.4,24.9c0.9-0.4,1.8-0.9,2.6-1.5l3.2,3.2c-1.3,1.1-2.8,2.1-4.6,2.7L19.4,24.9z M2.3,13.4l4.4,1.2c-0.2,1-0.2,2,0,3l-4.3,1.2
	C1.9,16.9,1.9,15.1,2.3,13.4z M12.6,7.1C11.6,7.5,10.8,8,10,8.6L6.8,5.4c1.3-1.1,2.9-2,4.6-2.6L12.6,7.1z M8.6,10
	c-0.6,0.8-1.1,1.6-1.5,2.6l-4.4-1.2c0.6-1.7,1.5-3.2,2.6-4.6L8.6,10z M7.1,19.4C7.5,20.4,8,21.2,8.6,22l-3.2,3.2
	c-1.1-1.3-2.1-2.9-2.7-4.6L7.1,19.4z M10.1,23.4c0.8,0.6,1.6,1.1,2.6,1.5l-1.2,4.4c-1.7-0.6-3.2-1.5-4.6-2.6L10.1,23.4z M8.8,17.9
	c-1.1-4,1.3-8.1,5.3-9.2c4-1.1,8.1,1.3,9.2,5.3s-1.3,8.1-5.3,9.2C14,24.3,9.8,21.9,8.8,17.9z M24.9,12.6c-0.4-0.9-0.9-1.8-1.5-2.6
	l3.2-3.2c1.1,1.3,2,2.8,2.6,4.6L24.9,12.6z M22,8.6c-0.8-0.6-1.6-1.1-2.6-1.5l1.2-4.4c1.7,0.6,3.2,1.5,4.6,2.6L22,8.6z M23.4,21.9
	c0.6-0.8,1.1-1.6,1.5-2.6l4.4,1.2c-0.6,1.7-1.5,3.2-2.6,4.6L23.4,21.9z M25.4,17.5c0.1-1,0.2-2,0-3l4.3-1.2c0.3,1.8,0.3,3.6,0,5.3
	L25.4,17.5z M18.6,2.3l-1.2,4.4c-1-0.2-2-0.2-3,0l-1.2-4.3C15.2,1.9,16.9,1.9,18.6,2.3z M13.4,29.7l1.2-4.4c1,0.1,2,0.2,3,0l1.2,4.3
	C16.9,30.1,15.1,30.1,13.4,29.7z"/>
</svg>
